<svg xmlns="http://www.w3.org/2000/svg" width="1400" height="820" viewBox="0 0 1400 820">
<defs><linearGradient id="bg" x1="0" y1="0" x2="1" y2="1"><stop stop-color="#07111c"/><stop offset="1" stop-color="#142238"/></linearGradient><linearGradient id="g" x1="0" x2="1"><stop stop-color="#56e2ff"/><stop offset="1" stop-color="#7a86ff"/></linearGradient><filter id="s"><feDropShadow dx="0" dy="10" stdDeviation="16" flood-opacity=".25"/></filter></defs>
<rect width="1400" height="820" rx="28" fill="url(#bg)"/>
<rect x="24" y="24" width="235" height="772" rx="22" fill="#0a1726" stroke="#19324d"/><circle cx="63" cy="70" r="20" fill="url(#g)"/><text x="96" y="68" fill="#f5fbff" font-size="24" font-family="Arial" font-weight="700">MediLink AI</text><text x="96" y="88" fill="#7894a8" font-size="12" font-family="Arial">OPERATIONS CENTRE</text>
<rect x="42" y="126" width="198" height="44" rx="11" fill="#11324b"/><text x="66" y="154" fill="#effcff" font-size="15" font-family="Arial">Operations</text><g fill="#8ba5b8" font-size="15" font-family="Arial"><text x="66" y="208">Capacity</text><text x="66" y="252">Departments</text><text x="66" y="296">Activity</text><text x="66" y="340">Audit history</text><text x="66" y="384">Care network</text><text x="66" y="428">Platform</text><text x="66" y="472">Intelligence</text></g>
<text x="298" y="74" fill="#7f9fb6" font-size="14" font-family="Arial">HOSPITAL OPERATIONS</text><text x="298" y="114" fill="#f5fbff" font-size="34" font-family="Arial" font-weight="700">One view of the care network.</text><text x="298" y="142" fill="#8ca6b8" font-size="16" font-family="Arial">Demand, capacity, clinical activity, governance and platform health.</text>
<rect x="1110" y="67" width="258" height="42" rx="14" fill="#0f2a3e" stroke="#1e4c68"/><circle cx="1134" cy="88" r="6" fill="#4ce6bf"/><text x="1150" y="93" fill="#c8edf6" font-size="13" font-family="Arial">Care network online</text>
<rect x="298" y="180" width="1070" height="130" rx="20" fill="#0d1d30" stroke="#1e3a52" filter="url(#s)"/><text x="324" y="215" fill="#75dff2" font-size="12" font-family="Arial">OPERATIONS CENTRE</text><text x="324" y="249" fill="#ffffff" font-size="25" font-family="Arial" font-weight="700">Live service demand and patient-flow intelligence.</text><text x="324" y="280" fill="#8ca6b8" font-size="14" font-family="Arial">Monitor occupancy, waiting load, open capacity and recent operational activity.</text><text x="1180" y="236" fill="#ffffff" font-size="38" font-family="Arial" font-weight="700">78%</text><text x="1180" y="266" fill="#8ca6b8" font-size="12" font-family="Arial">CURRENT OCCUPANCY</text>
<g filter="url(#s)">
<rect x="298" y="334" width="248" height="108" rx="18" fill="#0d1d30" stroke="#1e3a52"/><text x="322" y="367" fill="#7f9fb6" font-size="12" font-family="Arial">PATIENTS</text><text x="322" y="414" fill="#ffffff" font-size="34" font-family="Arial" font-weight="700">1,284</text>
<rect x="568" y="334" width="248" height="108" rx="18" fill="#0d1d30" stroke="#1e3a52"/><text x="592" y="367" fill="#7f9fb6" font-size="12" font-family="Arial">CLINICIANS</text><text x="592" y="414" fill="#ffffff" font-size="34" font-family="Arial" font-weight="700">86</text>
<rect x="838" y="334" width="248" height="108" rx="18" fill="#0d1d30" stroke="#1e3a52"/><text x="862" y="367" fill="#7f9fb6" font-size="12" font-family="Arial">APPOINTMENTS</text><text x="862" y="414" fill="#ffffff" font-size="34" font-family="Arial" font-weight="700">312</text>
<rect x="1108" y="334" width="260" height="108" rx="18" fill="#0d1d30" stroke="#1e3a52"/><text x="1132" y="367" fill="#7f9fb6" font-size="12" font-family="Arial">SIGNED NOTES</text><text x="1132" y="414" fill="#ffffff" font-size="34" font-family="Arial" font-weight="700">274</text>
</g>
<rect x="298" y="466" width="670" height="300" rx="20" fill="#0d1d30" stroke="#1e3a52" filter="url(#s)"/><text x="324" y="503" fill="#f5fbff" font-size="19" font-family="Arial" font-weight="700">Department load</text>
<g font-family="Arial"><text x="324" y="548" fill="#dff7ff" font-size="14">Emergency</text><rect x="470" y="535" width="420" height="12" rx="6" fill="#172d40"/><rect x="470" y="535" width="354" height="12" rx="6" fill="url(#g)"/><text x="908" y="548" fill="#bceff6" font-size="12">84%</text>
<text x="324" y="602" fill="#dff7ff" font-size="14">Cardiology</text><rect x="470" y="589" width="420" height="12" rx="6" fill="#172d40"/><rect x="470" y="589" width="302" height="12" rx="6" fill="url(#g)"/><text x="908" y="602" fill="#bceff6" font-size="12">72%</text>
<text x="324" y="656" fill="#dff7ff" font-size="14">Neurology</text><rect x="470" y="643" width="420" height="12" rx="6" fill="#172d40"/><rect x="470" y="643" width="260" height="12" rx="6" fill="url(#g)"/><text x="908" y="656" fill="#bceff6" font-size="12">62%</text>
<text x="324" y="710" fill="#dff7ff" font-size="14">General medicine</text><rect x="470" y="697" width="420" height="12" rx="6" fill="#172d40"/><rect x="470" y="697" width="323" height="12" rx="6" fill="url(#g)"/><text x="908" y="710" fill="#bceff6" font-size="12">77%</text></g>
<rect x="992" y="466" width="376" height="300" rx="20" fill="#0d1d30" stroke="#1e3a52" filter="url(#s)"/><text x="1018" y="503" fill="#f5fbff" font-size="19" font-family="Arial" font-weight="700">Capacity</text>
<circle cx="1180" cy="602" r="72" fill="none" stroke="#173149" stroke-width="18"/><circle cx="1180" cy="602" r="72" fill="none" stroke="#56e2ff" stroke-width="18" stroke-dasharray="353 452" transform="rotate(-90 1180 602)"/><text x="1144" y="610" fill="#ffffff" font-size="30" font-family="Arial" font-weight="700">78%</text><text x="1142" y="634" fill="#8ca6b8" font-size="11" font-family="Arial">OCCUPANCY</text>
<text x="1024" y="710" fill="#8ca6b8" font-size="12" font-family="Arial">Waiting room</text><text x="1282" y="710" fill="#ffffff" font-size="14" font-family="Arial" font-weight="700">11</text><text x="1024" y="739" fill="#8ca6b8" font-size="12" font-family="Arial">Open slots</text><text x="1274" y="739" fill="#ffffff" font-size="14" font-family="Arial" font-weight="700">148</text>
<text x="300" y="794" fill="#56738a" font-size="11" font-family="Arial">Illustrative preview based on the current MediLink admin dashboard structure.</text>
</svg>